<?xml version="1.0" encoding="UTF-8" standalone="no"?>
<svg xmlns:android="http://schemas.android.com/apk/res/android"  height="24" width="24" xmlns="http://www.w3.org/2000/svg">
    <path d="M3,11h8V3H3V11zM5,5h4v4H5V5z" fill="#FFFFFF"/>
    <path d="M3,21h8v-8H3V21zM5,15h4v4H5V15z" fill="#FFFFFF"/>
    <path d="M13,3v8h8V3H13zM19,9h-4V5h4V9z" fill="#FFFFFF"/>
    <path d="M19,19h2v2h-2z" fill="#FFFFFF"/>
    <path d="M13,13h2v2h-2z" fill="#FFFFFF"/>
    <path d="M15,15h2v2h-2z" fill="#FFFFFF"/>
    <path d="M13,17h2v2h-2z" fill="#FFFFFF"/>
    <path d="M15,19h2v2h-2z" fill="#FFFFFF"/>
    <path d="M17,17h2v2h-2z" fill="#FFFFFF"/>
    <path d="M17,13h2v2h-2z" fill="#FFFFFF"/>
    <path d="M19,15h2v2h-2z" fill="#FFFFFF"/>
</svg>
