<svg id="vector" xmlns="http://www.w3.org/2000/svg" width="24" height="24" viewBox="0 0 24 24"><path fill="#FFD700" d="M12,2C10.9,2 10,2.9 10,4C10,5.1 10.9,6 12,6C13.1,6 14,5.1 14,4C14,2.9 13.1,2 12,2Z" id="path_0"/><path fill="#FFD700" d="M12,8C10.9,8 10,8.9 10,10C10,11.1 10.9,12 12,12C13.1,12 14,11.1 14,10C14,8.9 13.1,8 12,8Z" id="path_1"/><path fill="#FFD700" d="M12,14C10.9,14 10,14.9 10,16C10,17.1 10.9,18 12,18C13.1,18 14,17.1 14,16C14,14.9 13.1,14 12,14Z" id="path_2"/><path fill="#FFD700" d="M12,20C10.9,20 10,20.9 10,22C10,23.1 10.9,24 12,24C13.1,24 14,23.1 14,22C14,20.9 13.1,20 12,20Z" id="path_3"/><path fill="none" d="M12,2L12,24" stroke-linecap="round" stroke="#8B4513" stroke-width="2" id="path_4"/></svg>